<?xml version="1.0" standalone="no"?><!DOCTYPE svg PUBLIC "-//W3C//DTD SVG 1.1//EN" "http://www.w3.org/Graphics/SVG/1.1/DTD/svg11.dtd"><svg t="1561736043655" class="icon" viewBox="0 0 1024 1024" version="1.1" xmlns="http://www.w3.org/2000/svg" p-id="1201" xmlns:xlink="http://www.w3.org/1999/xlink" width="200" height="200"><defs><style type="text/css"></style></defs><path d="M938.34666667 610.24L842.66666667 514.56c30.29333333-37.76 48.53333333-85.65333333 48.53333333-137.92 0-121.81333333-98.77333333-220.48-220.58666667-220.48-121.81333333 0-220.58666667 98.66666667-220.58666666 220.48s98.77333333 220.48 220.58666666 220.48c46.82666667 0 90.24-14.72 125.97333334-39.57333333l97.17333333 97.17333333c4.37333333 4.37333333 10.24 6.50666667 16.53333333 6.50666667 8.21333333 0 17.06666667-3.62666667 24-10.56 12.26666667-12.26666667 14.08-30.4 4.05333334-40.42666667z m-267.73333334-76.05333333c-86.93333333 0-157.54666667-70.61333333-157.54666666-157.44 0-86.82666667 70.61333333-157.44 157.54666666-157.44s157.65333333 70.61333333 157.65333334 157.44c0 86.82666667-70.72 157.44-157.65333334 157.44zM134.93333333 261.22666667h231.04c11.62666667 0 21.01333333-9.38666667 21.01333334-21.01333334v-21.01333333c0-11.62666667-9.38666667-21.01333333-21.01333334-21.01333333H134.93333333c-11.52 0-21.01333333 9.38666667-21.01333333 21.01333333v21.01333333c0 11.62666667 9.49333333 21.01333333 21.01333333 21.01333334zM134.93333333 597.33333333h273.06666667c11.62666667 0 21.01333333-9.49333333 21.01333333-21.01333333v-21.01333333c0-11.62666667-9.38666667-21.01333333-21.01333333-21.01333334h-273.06666667c-11.52 0-21.01333333 9.38666667-21.01333333 21.01333334v21.01333333c0 11.62666667 9.49333333 21.01333333 21.01333333 21.01333333zM870.18666667 828.37333333H134.93333333c-11.52 0-21.01333333 9.38666667-21.01333333 21.01333334V870.4c0 11.52 9.38666667 21.01333333 21.01333333 21.01333333h735.25333334c11.52 0 21.01333333-9.38666667 21.01333333-21.01333333v-21.01333333c0-11.62666667-9.49333333-21.01333333-21.01333333-21.01333334z" fill="#7f7f7f" p-id="1202"></path></svg>