<?xml version="1.0" standalone="no"?><!DOCTYPE svg PUBLIC "-//W3C//DTD SVG 1.1//EN" "http://www.w3.org/Graphics/SVG/1.1/DTD/svg11.dtd"><svg t="1561778914187" class="icon" viewBox="0 0 1024 1024" version="1.1" xmlns="http://www.w3.org/2000/svg" p-id="1214" xmlns:xlink="http://www.w3.org/1999/xlink" width="200" height="200"><defs><style type="text/css"></style></defs><path d="M842.67034667 794.47726293l0.0240128-0.0240128-613.88984747-613.84837013c-6.17367467-6.17804053-14.7050464-9.9994752-24.12928747-9.9994752-18.83974933 0-34.11238933 15.27264-34.11238933 34.11238933 0 9.4231488 3.82143467 17.9545216 9.998384 24.12819627L793.719744 841.9619456c6.22825067 6.69651627 15.1110944 10.89016107 24.97740373 10.89016107 18.83974933 0 34.11238933-15.27264 34.11238934-34.11238934 0-9.49409813-3.8803776-18.07786347-10.1391904-24.2624544z" fill="#7f7f7f" p-id="1215"></path><path d="M794.4357856 180.7445952l-0.02401387-0.02401387L180.5634016 794.61042987c-6.17804053 6.17367467-9.9994752 14.7050464-9.9994752 24.12928746 0 18.83974933 15.27264 34.11238933 34.1123904 34.11238934 9.4231488 0 17.9545216-3.82143467 24.1281952-9.998384l613.11704747-613.1585248c6.69651627-6.22825067 10.89016107-15.1110944 10.89016106-24.97740374 0-18.83974933-15.27264-34.11238933-34.1123904-34.11238933-9.4951904 0-18.08004693 3.8803776-24.26354453 10.1391904z" fill="#7f7f7f" p-id="1216"></path></svg>