<?xml version="1.0" encoding="utf-8"?>
<!-- Generator: Adobe Illustrator 22.0.1, SVG Export Plug-In . SVG Version: 6.00 Build 0)  -->
<svg version="1.1" id="图层_1" xmlns="http://www.w3.org/2000/svg" xmlns:xlink="http://www.w3.org/1999/xlink" x="0px" y="0px"
	 viewBox="0 0 200 200" style="enable-background:new 0 0 200 200;" xml:space="preserve">
<style type="text/css">
	.st0{fill:#7F7F7F;}
</style>
<path class="st0" d="M153.3,30.8L153.3,30.8L33.4,150.7c-1.2,1.2-1.8,3.1-1.4,5.3c0.7,4.4,4.9,8.6,9.3,9.3c2.2,0.4,4.1-0.2,5.3-1.4
	L166.3,44.1c1.3-1.2,2-3.1,1.6-5.4c-0.7-4.4-4.9-8.6-9.3-9.3C156.4,29,154.5,29.6,153.3,30.8L153.3,30.8z"/>
<path class="st0" d="M166.4,150.7L166.4,150.7L46.6,30.8c-1.2-1.2-3.1-1.8-5.3-1.4c-4.4,0.7-8.6,4.9-9.3,9.3
	c-0.4,2.2,0.2,4.1,1.4,5.3l119.7,119.8c1.2,1.3,3.1,2,5.4,1.6c4.4-0.7,8.6-4.9,9.3-9.3C168.2,153.8,167.7,151.9,166.4,150.7
	L166.4,150.7z"/>
</svg>
