<?xml version="1.0" standalone="no"?><!DOCTYPE svg PUBLIC "-//W3C//DTD SVG 1.1//EN" "http://www.w3.org/Graphics/SVG/1.1/DTD/svg11.dtd"><svg t="1572273824057" class="icon" viewBox="0 0 1025 1024" version="1.1" xmlns="http://www.w3.org/2000/svg" p-id="3597" xmlns:xlink="http://www.w3.org/1999/xlink" width="200.1953125" height="200"><defs><style type="text/css"></style></defs><path d="M693.7 313.2c-48.7-47.8-112.5-71.6-181.1-70.9-140.8 1.1-254.4 121.6-253.3 262.4 0.6 68.2 27.6 141.8 76.3 189.6 48.1 47.3 111.6 93 178.9 93h2.1c140.8 0 254.4-135.1 253.1-275.7-0.4-68.3-27.4-150.6-76-198.4M516.2 689.1c-51.5 0.4-99.4-14.1-135.8-50s-56.8-74-57.2-125.1c-0.9-105.6 84.3-173.5 189.9-173.5h1.6c50.5 0 98.2 1.1 134.2 36.6 36.4 35.9 56.8 65.3 57.2 116.6 0.9 105.5-84.3 194.6-189.9 195.4z" p-id="3598"></path><path d="M386.9 493.8l63.8-0.6c-0.3-35.2 28-64.1 63.3-64.3l-0.6-63.8c-70.2 0.6-127 58.4-126.5 128.7z" p-id="3599"></path><path d="M511.5 114.7c261.8-0.9 488 157.6 513.5 354.3l-63.3 15.5c-21.4-164-216.1-271.8-444.6-271.8H512C281 212.8 85.7 322.9 67.6 484L4.3 467.1c22-195.9 240.1-350.2 507.2-352.4m6.3 800.2h-5.6c-260.1 0-482.6-171.3-507.9-366.6l63.3-17.9C89 695.7 286 817.3 517.3 816.8c230.9-1.9 426.1-132.1 444.3-293.3l63.3 25.5c-22 195.9-240.1 365.9-507.1 365.9z" p-id="3600"></path></svg>