<?xml version="1.0" standalone="no"?><!DOCTYPE svg PUBLIC "-//W3C//DTD SVG 1.1//EN" "http://www.w3.org/Graphics/SVG/1.1/DTD/svg11.dtd"><svg t="1561781524766" class="icon" viewBox="0 0 1024 1024" version="1.1" xmlns="http://www.w3.org/2000/svg" p-id="1128" xmlns:xlink="http://www.w3.org/1999/xlink" width="200" height="200"><defs><style type="text/css"></style></defs><path d="M512 249.49999971c-22.5 0-37.50000029-15.00000029-37.50000029-37.50000029L474.49999971 99.50000029c0-22.5 15.00000029-37.50000029 37.50000029-37.50000029s37.50000029 15.00000029 37.50000029 37.50000029l0 112.5C549.50000029 234.50000029 534.5 249.49999971 512 249.49999971z" p-id="1129"></path><path d="M512 962c-22.5 0-37.50000029-15.00000029-37.50000029-37.50000029l0-112.5c0-22.5 15.00000029-37.50000029 37.50000029-37.5000003s37.50000029 15.00000029 37.50000029 37.5000003l0 112.5C549.50000029 946.99999971 534.5 962 512 962z" p-id="1130"></path><path d="M212.00000029 549.50000029L99.50000029 549.50000029c-22.5 0-37.50000029-15.00000029-37.50000029-37.50000029s15.00000029-37.50000029 37.50000029-37.50000029l112.5 0c22.5 0 37.50000029 15.00000029 37.50000029 37.50000029S234.50000029 549.50000029 212.00000029 549.50000029z" p-id="1131"></path><path d="M924.49999971 549.50000029l-112.5 0c-22.5 0-37.50000029-15.00000029-37.50000029-37.50000029s15.00000029-37.50000029 37.50000029-37.50000029l112.5 0c22.5 0 37.50000029 15.00000029 37.50000029 37.50000029S946.99999971 549.50000029 924.49999971 549.50000029z" p-id="1132"></path><path d="M770.75 399.5c-11.25 0-26.25000029-7.49999971-33.75-18.74999971-11.25-18.74999971-3.75000029-41.24999971 15.00000029-52.49999971L849.5 271.99999971c18.74999971-11.25 41.24999971-3.75000029 52.49999971 15.00000029 11.25 18.74999971 3.75000029 41.24999971-15.0000003 52.49999971l-97.4999997 56.25C785.75000029 399.5 778.24999971 399.5 770.75 399.5z" p-id="1133"></path><path d="M155.75000029 755.74999971c-11.25 0-26.25000029-7.49999971-33.75-18.74999971-11.25-18.74999971-3.75000029-41.24999971 15.00000029-52.49999971l97.49999971-56.25c18.74999971-11.25 41.24999971-3.75000029 52.49999971 15.0000003 11.25 18.74999971 3.75000029 41.24999971-15.00000029 52.4999997L174.5 752.00000029C167.00000029 755.74999971 159.49999971 755.74999971 155.75000029 755.74999971z" p-id="1134"></path><path d="M662.00000029 290.75000029c-7.49999971 0-11.25 0-18.7499997-3.75000029-18.74999971-11.25-22.5-33.75-15.0000003-52.49999971L684.50000029 136.99999971c11.25-18.74999971 33.75-22.5 52.49999971-15.00000029 18.74999971 11.25 22.5 33.75 15.00000029 52.4999997l-56.25 97.49999971C688.24999971 283.24999971 673.25000029 290.75000029 662.00000029 290.75000029z" p-id="1135"></path><path d="M305.74999971 905.75c-7.49999971 0-11.25 0-18.74999971-3.75000029-18.74999971-11.25-22.5-33.75-15.00000029-52.49999971l56.25-97.49999971C339.49999971 737 361.99999971 729.50000029 380.75000029 740.75000029c18.74999971 11.25 22.5 33.75 15.0000003 52.49999971L339.49999971 887.00000029C332 898.25000029 316.99999971 905.75 305.74999971 905.75z" p-id="1136"></path><path d="M253.25 399.5C245.75000029 399.5 238.24999971 399.5 234.50000029 395.74999971L136.99999971 339.49999971C118.25 328.24999971 110.75000029 305.74999971 122.00000029 287 133.25000029 268.25000029 155.75000029 264.5 174.5 271.99999971l97.49999971 56.25C290.75000029 339.49999971 294.49999971 361.99999971 283.24999971 380.75000029 279.50000029 392.00000029 264.5 399.5 253.25 399.5z" p-id="1137"></path><path d="M868.24999971 755.74999971c-7.49999971 0-11.25 0-18.74999971-3.75000029l-97.49999971-56.25c-18.74999971-11.25-22.5-33.75-15.00000029-52.49999971 11.25-18.74999971 33.75-22.5 52.49999971-15.00000029l97.49999971 56.25c18.74999971 11.25 22.5 33.75 15.00000029 52.4999997C894.5 748.25 883.25 755.74999971 868.24999971 755.74999971z" p-id="1138"></path><path d="M361.99999971 290.75000029c-11.25 0-26.25000029-7.49999971-33.75-18.7499997L271.99999971 174.5C264.5 155.75000029 268.25000029 133.25000029 287 122.00000029 305.74999971 110.75000029 328.24999971 118.25 339.49999971 136.99999971l56.25 97.49999971C403.25000029 253.25 399.5 275.75 380.75000029 283.24999971 373.24999971 287 369.50000029 290.75000029 361.99999971 290.75000029z" p-id="1139"></path><path d="M718.25000029 905.75c-11.25 0-26.25000029-7.49999971-33.75-18.74999971l-56.25-97.49999971c-11.25-18.74999971-3.75000029-41.24999971 15.0000003-52.4999997 18.74999971-11.25 41.24999971-3.75000029 52.4999997 15.00000029l56.25 97.49999971c11.25 18.74999971 3.75000029 41.24999971-15.00000029 52.4999997C729.50000029 905.75 725.75 905.75 718.25000029 905.75z" p-id="1140"></path></svg>