<?xml version="1.0" standalone="no"?><!DOCTYPE svg PUBLIC "-//W3C//DTD SVG 1.1//EN" "http://www.w3.org/Graphics/SVG/1.1/DTD/svg11.dtd"><svg t="1561736055764" class="icon" viewBox="0 0 1024 1024" version="1.1" xmlns="http://www.w3.org/2000/svg" p-id="1327" xmlns:xlink="http://www.w3.org/1999/xlink" width="200" height="200"><defs><style type="text/css"></style></defs><path d="M722 542H512c-16.5 0-30-13.5-30-30V242c0-16.5 13.5-30 30-30s30 13.5 30 30v240h180c16.5 0 30 13.5 30 30s-13.5 30-30 30z m151.5-144c-16.5 0-30-13.5-30-30V206c0-16.5 13.5-30 30-30s30 13.5 30 30v162c0 16.5-13.5 30-30 30zM512 932C281 932 92 743 92 512S281 92 512 92c172.5 0 325.5 103.5 390 264 6 15-1.5 33-16.5 39-15 6-33-1.5-39-16.5C791 240.5 660.5 152 512 152c-198 0-360 162-360 360s162 360 360 360c148.5 0 279-88.5 334.5-226.5 6-15 24-22.5 39-16.5 15 6 22.5 24 16.5 39C837.5 828.5 684.5 932 512 932z" fill="#7f7f7f" p-id="1328"></path></svg>