<?xml version="1.0" standalone="no"?><!DOCTYPE svg PUBLIC "-//W3C//DTD SVG 1.1//EN" "http://www.w3.org/Graphics/SVG/1.1/DTD/svg11.dtd"><svg t="1561736716163" class="icon" viewBox="0 0 1024 1024" version="1.1" xmlns="http://www.w3.org/2000/svg" p-id="995" xmlns:xlink="http://www.w3.org/1999/xlink" width="200" height="200"><defs><style type="text/css"></style></defs><path d="M560.33792985 928.01723802c-1.36797276 0-2.74403935-0.05666133-4.12820068-0.17088399-21.55568555-1.78259151-39.11717812-17.1828501-43.70047119-38.32121865L449.92249157 600.89912385c-2.98417675-13.7651669-13.80743877-24.58752979-27.57170654-27.57170654l-288.62691065-62.5867664c-21.13746855-4.58329219-36.53772715-22.14478565-38.32031865-43.7004712s10.52196592-41.4088251 30.61974024-49.403504L817.06257039 142.75964251c18.13800234-7.21580801 38.77810839-2.95809434 52.58284891 10.84574619 13.80294141 13.80384141 18.05975508 34.44304746 10.84394795 52.58194981L605.61233318 897.2266138C598.13120534 916.03376263 580.2648193 928.01723802 560.33792985 928.01723802zM434.54831453 517.07325745c35.75795625 7.75454238 63.87469278 35.86948066 71.62833602 71.62833604l56.52487618 260.66936601 256.81817725-645.64075547L173.87804938 460.54928128 434.54831453 517.07325745 434.54831453 517.07325745z" fill="#7f7f7f" p-id="996"></path></svg>