<?xml version="1.0" standalone="no"?><!DOCTYPE svg PUBLIC "-//W3C//DTD SVG 1.1//EN" "http://www.w3.org/Graphics/SVG/1.1/DTD/svg11.dtd"><svg t="1561778923369" class="icon" viewBox="0 0 1024 1024" version="1.1" xmlns="http://www.w3.org/2000/svg" p-id="1341" xmlns:xlink="http://www.w3.org/1999/xlink" width="200" height="200"><defs><style type="text/css"></style></defs><path d="M912.96426667 238.4440889c-13.7216-12.86826667-35.36213333-12.25386667-48.2304 1.50186666L409.53173333 724.60515556l-248.66133333-245.00906666C147.42186667 466.35235556 125.81546667 466.4888889 112.57173333 479.93742223c-13.24373333 13.4144-13.07306667 35.05493333 0.37546667 48.26453333l273.57866667 269.5168c0.1024 0.1024 0.23893333 0.13653333 0.34133333 0.23893334 0.1024 0.1024 0.13653333 0.23893333 0.23893333 0.34133333 2.1504 2.048 4.74453333 3.20853333 7.23626667 4.57386667 1.2288 0.7168 2.28693333 1.77493333 3.584 2.28693333 4.02773333 1.57013333 8.2944 2.38933333 12.52693333 2.38933333 4.47146667 0 8.94293333-0.88746667 13.1072-2.6624 1.39946667-0.58026667 2.49173333-1.77493333 3.7888-2.52586666 2.56-1.50186667 5.2224-2.7648 7.40693334-4.98346667 0.1024-0.1024 0.13653333-0.27306667 0.23893333-0.37546667 0.06826667-0.1024 0.2048-0.13653333 0.3072-0.23893333l479.1296-510.08853333C927.40266667 272.98702223 926.68586667 251.38062223 912.96426667 238.4440889z" fill="#7f7f7f" p-id="1342"></path></svg>