<?xml version="1.0" encoding="utf-8"?>
<!-- Generator: Adobe Illustrator 22.0.1, SVG Export Plug-In . SVG Version: 6.00 Build 0)  -->
<svg version="1.1" id="图层_1" xmlns="http://www.w3.org/2000/svg" xmlns:xlink="http://www.w3.org/1999/xlink" x="0px" y="0px"
	 viewBox="0 0 200 200" style="enable-background:new 0 0 200 200;" xml:space="preserve">
<style type="text/css">
	.st0{fill:#7F7F7F;}
</style>
<path class="st0" d="M184.6,42.8c-2.7-2.5-7-2.4-9.5,0.3L85.5,139L36.6,90.5c-2.6-2.6-6.9-2.6-9.5,0.1c-2.6,2.7-2.6,6.9,0.1,9.5
	L81,153.4c0,0,0,0,0.1,0c0,0,0,0,0,0.1c0.4,0.4,0.9,0.6,1.4,0.9c0.2,0.1,0.5,0.4,0.7,0.5c0.8,0.3,1.6,0.5,2.5,0.5
	c0.9,0,1.8-0.2,2.6-0.5c0.3-0.1,0.5-0.4,0.7-0.5c0.5-0.3,1-0.5,1.5-1c0,0,0-0.1,0-0.1c0,0,0,0,0.1,0l94.3-100.9
	C187.5,49.7,187.3,45.4,184.6,42.8z"/>
<path class="st0" d="M185.9,41.9c-2.7-2.5-7-2.4-9.5,0.3l-89.6,95.9L37.8,89.6c-2.6-2.6-6.9-2.6-9.5,0.1c-2.6,2.7-2.6,6.9,0.1,9.5
	l53.8,53.3c0,0,0,0,0.1,0c0,0,0,0,0,0.1c0.4,0.4,0.9,0.6,1.4,0.9c0.2,0.1,0.5,0.4,0.7,0.5c0.8,0.3,1.6,0.5,2.5,0.5
	c0.9,0,1.8-0.2,2.6-0.5c0.3-0.1,0.5-0.4,0.7-0.5c0.5-0.3,1-0.5,1.5-1c0,0,0-0.1,0-0.1c0,0,0,0,0.1,0l94.3-100.9
	C188.7,48.8,188.6,44.5,185.9,41.9z"/>
<path class="st0" d="M185.9,49.8c-2.7-2.5-7-2.4-9.5,0.3L86.8,146L37.8,97.5c-2.6-2.6-6.9-2.6-9.5,0.1c-2.6,2.7-2.6,6.9,0.1,9.5
	l53.8,53.3c0,0,0,0,0.1,0c0,0,0,0,0,0.1c0.4,0.4,0.9,0.6,1.4,0.9c0.2,0.1,0.5,0.4,0.7,0.5c0.8,0.3,1.6,0.5,2.5,0.5
	c0.9,0,1.8-0.2,2.6-0.5c0.3-0.1,0.5-0.4,0.7-0.5c0.5-0.3,1-0.5,1.5-1c0,0,0-0.1,0-0.1c0,0,0,0,0.1,0l94.3-100.9
	C188.7,56.7,188.6,52.4,185.9,49.8z"/>
<path class="st0" d="M32,107.1L32,107.1c-5.4,0-9.9-4.4-9.9-9.9v0c0-5.4,4.4-9.9,9.9-9.9h0c5.4,0,9.9,4.4,9.9,9.9v0
	C41.9,102.6,37.5,107.1,32,107.1z"/>
<path class="st0" d="M181.4,59.8L181.4,59.8c-5.4,0-9.9-4.4-9.9-9.9v0c0-5.4,4.4-9.9,9.9-9.9h0c5.4,0,9.9,4.4,9.9,9.9v0
	C191.2,55.4,186.8,59.8,181.4,59.8z"/>
</svg>
