<?xml version="1.0" standalone="no"?><!DOCTYPE svg PUBLIC "-//W3C//DTD SVG 1.1//EN" "http://www.w3.org/Graphics/SVG/1.1/DTD/svg11.dtd"><svg t="1613834226680" class="icon" viewBox="0 0 1024 1024" version="1.1" xmlns="http://www.w3.org/2000/svg" p-id="2114" xmlns:xlink="http://www.w3.org/1999/xlink" width="200" height="200"><defs><style type="text/css"></style></defs><path d="M377 432h349a8 8 0 0 1 8 8v48a8 8 0 0 1-8 8H377a8 8 0 0 1-8-8v-48a8 8 0 0 1 8-8z m0 160h258a8 8 0 0 1 8 8v48a8 8 0 0 1-8 8H377a8 8 0 0 1-8-8v-48a8 8 0 0 1 8-8z m-65-280v576h480V312H312z m-40-72h560c17.673 0 32 14.327 32 32v656c0 17.673-14.327 32-32 32H272c-17.673 0-32-14.327-32-32V272c0-17.673 14.327-32 32-32z m-88-56v664a8 8 0 0 1-8 8h-56a8 8 0 0 1-8-8V144c0-17.673 14.327-32 32-32h632a8 8 0 0 1 8 8v56a8 8 0 0 1-8 8H184z" p-id="2115"></path></svg>